<?xml version="1.0" encoding="iso-8859-1"?>
<!-- Generator: Adobe Illustrator 16.0.0, SVG Export Plug-In . SVG Version: 6.00 Build 0)  -->
<!DOCTYPE svg PUBLIC "-//W3C//DTD SVG 1.1//EN" "http://www.w3.org/Graphics/SVG/1.1/DTD/svg11.dtd">
<svg version="1.1" id="Capa_1" xmlns="http://www.w3.org/2000/svg" xmlns:xlink="http://www.w3.org/1999/xlink" x="0px" y="0px"
	 width="94.286px" height="94.286px" viewBox="0 0 94.286 94.286" style="enable-background:new 0 0 94.286 94.286;"
	 xml:space="preserve">
<g>
	<g id="Layer_1_16_">
		<g>
			<g>
				<g>
					<path style="fill:#333" d="M36.477,26.235c0.963,0,1.911-0.02,2.848-0.061c0.494-6.635,10.935-10.545,22.662-11.504V9.303
						C61.987,4.162,50.564,0,36.477,0C22.39,0,10.971,4.163,10.971,9.303v7.631C10.971,22.071,22.39,26.235,36.477,26.235z"/>
				</g>
			</g>
			<path style="fill:#333" d="M10.978,22.071l-0.007,8.496c3.545-0.814,7.429-1.293,11.323-1.459C15.972,27.557,11.569,25.002,10.978,22.071z"/>
			<g>
				<g>
					<path style="fill:#333" d="M68.385,18.018c-14.086,0-25.507,4.164-25.507,9.301v4.039c3.12,0.945,5.854,2.186,7.925,3.738l0.152,0.111
						c2.477,1.904,3.964,4.268,3.964,7.115v0.527c3.909,0.887,8.521,1.4,13.466,1.4c14.088,0,25.508-4.16,25.508-9.299v-7.633
						C93.893,22.182,82.473,18.018,68.385,18.018z"/>
				</g>
			</g>
			<path style="fill:#333" d="M93.898,40.086c-0.971,4.816-12.063,8.611-25.514,8.611c-4.945,0-9.56-0.514-13.466-1.402V60.59
				c3.909,0.887,8.521,1.402,13.466,1.402c14.088,0,25.508-4.164,25.508-9.303C93.893,52.689,93.943,40.317,93.898,40.086z"/>
			<path style="fill:#333" d="M93.889,58.043c-0.972,4.812-12.054,8.609-25.504,8.609c-4.945,0-9.56-0.516-13.466-1.404v13.299
				c3.909,0.887,8.521,1.4,13.466,1.4c14.088,0,25.508-4.162,25.508-9.301C93.893,70.646,93.934,58.268,93.889,58.043z"/>
			<g>
				<g>
					<path style="fill:#333" d="M25.892,32.356c-14.088,0-25.509,4.162-25.509,9.299v7.635c0,5.14,11.421,9.297,25.509,9.297
						c14.087,0,25.506-4.157,25.506-9.297v-7.635C51.398,36.518,39.979,32.356,25.892,32.356z"/>
				</g>
			</g>
			<g>
				<g>
					<path style="fill:#333" d="M25.892,63.036c-13.45,0-24.531-3.797-25.5-8.61c-0.046,0.227-0.009,12.602-0.009,12.602
						c0,5.14,11.421,9.304,25.509,9.304c14.087,0,25.506-4.164,25.506-9.304c0,0,0.041-12.375-0.006-12.604
						C50.422,59.239,39.342,63.036,25.892,63.036z"/>
				</g>
			</g>
			<g>
				<g>
					<path style="fill:#333" d="M25.892,80.991c-13.45,0-24.543-3.8-25.512-8.611l0.003,12.604c0,5.14,11.421,9.302,25.509,9.302
						c14.087,0,25.506-4.162,25.506-9.302c0,0,0.031-12.379-0.016-12.604C50.413,77.191,39.342,80.991,25.892,80.991z"/>
				</g>
			</g>
		</g>
	</g>
</g>
<g>
</g>
<g>
</g>
<g>
</g>
<g>
</g>
<g>
</g>
<g>
</g>
<g>
</g>
<g>
</g>
<g>
</g>
<g>
</g>
<g>
</g>
<g>
</g>
<g>
</g>
<g>
</g>
<g>
</g>
</svg>
