<?xml version="1.0" encoding="iso-8859-1"?>
<!-- Generator: Adobe Illustrator 16.0.0, SVG Export Plug-In . SVG Version: 6.00 Build 0)  -->
<!DOCTYPE svg PUBLIC "-//W3C//DTD SVG 1.1//EN" "http://www.w3.org/Graphics/SVG/1.1/DTD/svg11.dtd">
<svg version="1.1" id="Capa_1" xmlns="http://www.w3.org/2000/svg" xmlns:xlink="http://www.w3.org/1999/xlink" x="0px" y="0px"
	 width="150.817px" height="150.817px" viewBox="0 0 150.817 150.817" style="enable-background:new 0 0 150.817 150.817;"
	 xml:space="preserve">
<g>
	<path style="fill:#333" d="M58.263,64.946c3.58-8.537,9.834-16.039,18.456-21.02c6.644-3.842,14.225-5.876,21.902-5.876
		c6.376,0,12.568,1.461,18.207,4.031V21.677C116.829,9.706,92.563,0,62.641,0C32.71,0,8.448,9.706,8.448,21.677v21.681
		C8.436,54.75,30.372,64.061,58.263,64.946z M62.629,5.416c29.77,0,48.768,9.633,48.768,16.255c0,6.634-18.998,16.258-48.768,16.258
		c-29.776,0-48.774-9.624-48.774-16.258C13.855,15.049,32.853,5.416,62.629,5.416z M8.429,75.883V54.202
		c0,10.973,20.396,20.015,46.841,21.449c-1.053,7.21-0.311,14.699,2.375,21.799C30.055,96.445,8.436,87.184,8.429,75.883z
		 M95.425,125.631c-9.109,2.771-20.457,4.445-32.796,4.445c-29.931,0-54.193-9.706-54.193-21.684V86.709
		c0,11.983,24.256,21.684,54.193,21.684c0.341,0,0.673-0.018,1.014-0.018C71.214,118.373,82.827,124.656,95.425,125.631z
		 M131.296,63.11c-10.388-17.987-33.466-24.174-51.46-13.785c-17.987,10.388-24.173,33.463-13.792,51.45
		c10.388,17.993,33.478,24.174,51.465,13.798C135.51,104.191,141.684,81.102,131.296,63.11z M71.449,97.657
		C62.778,82.66,67.945,63.394,82.955,54.72c15.01-8.662,34.275-3.504,42.946,11.509c8.672,15.013,3.502,34.279-11.508,42.943
		C99.377,117.85,80.117,112.686,71.449,97.657z M139.456,133.852l-16.203,9.353l-12.477-21.598l16.209-9.359L139.456,133.852z
		 M137.708,149.562c-4.488,2.582-10.199,1.06-12.794-3.429l16.216-9.353C143.718,141.268,142.184,146.979,137.708,149.562z"/>
</g>
<g>
</g>
<g>
</g>
<g>
</g>
<g>
</g>
<g>
</g>
<g>
</g>
<g>
</g>
<g>
</g>
<g>
</g>
<g>
</g>
<g>
</g>
<g>
</g>
<g>
</g>
<g>
</g>
<g>
</g>
</svg>
